<svg width="472" height="201" viewBox="0 0 472 201" fill="none" xmlns="http://www.w3.org/2000/svg">
<mask id="mask0_523_425" style="mask-type:luminance" maskUnits="userSpaceOnUse" x="0" y="0" width="516" height="201">
<path fill-rule="evenodd" clip-rule="evenodd" d="M0 87.4077L495.713 0.000196715L515.595 112.756L19.8819 200.164L0 87.4077Z" fill="white"/>
</mask>
<g mask="url(#mask0_523_425)">
<path fill-rule="evenodd" clip-rule="evenodd" d="M257.293 133.051C255.476 133.371 254.519 133.899 254.924 134.353C255.299 134.772 256.74 134.918 258.125 134.673C259.51 134.429 260.577 133.841 260.494 133.371C260.411 132.901 258.97 132.755 257.293 133.051Z" fill="#CEFF1B"/>
<path fill-rule="evenodd" clip-rule="evenodd" d="M447.618 101.86C447.041 102.218 446.297 102.317 445.963 102.086C445.627 101.846 446.099 101.558 447.007 101.432C448.015 101.303 448.252 101.469 447.618 101.86ZM438.888 102.8C438.418 102.883 437.727 102.605 437.354 102.186C436.979 101.767 437.056 101.354 437.526 101.271C437.999 101.187 438.693 101.465 439.068 101.883C439.44 102.303 439.361 102.716 438.888 102.8ZM403.002 103.825C400.864 104.202 399.494 103.082 400.736 101.976C401.206 101.562 402.321 101.731 403.214 102.357C404.72 103.413 404.702 103.525 403.002 103.825ZM388.943 86.8137C386.628 87.2832 385.913 86.9935 387.042 86.051C387.358 85.7849 388.442 85.7402 389.453 85.9538C391.055 86.2895 390.989 86.3997 388.943 86.8137ZM381.708 88.3507C378.19 89.2988 372.691 89.3198 374.869 88.3761C376.753 87.5589 385.519 86.2052 385.608 86.7117C385.665 87.0214 383.908 87.7575 381.708 88.3507ZM332.416 121.542C329.739 122.032 327.244 122.086 326.869 121.667C326.494 121.248 326.497 120.827 326.872 120.731C327.246 120.633 328.933 120.165 330.611 119.68C332.415 119.162 334.414 119.183 335.478 119.731C337.103 120.561 336.792 120.746 332.416 121.542ZM298.359 116.171C297.67 117.156 291.21 118.407 271.618 121.353C269.487 121.672 266.9 121.633 265.864 121.269C264.828 120.898 260.692 121.107 256.671 121.726C247.013 123.216 245.233 123.37 243.918 122.815C243.311 122.563 242.242 122.698 241.542 123.112C240.707 123.619 240.19 123.409 240.03 122.499C239.896 121.742 239.209 121.226 238.503 121.351C237.798 121.475 237.139 121.143 237.046 120.614C236.928 119.942 238.164 119.612 241.053 119.537C245.075 119.435 253.055 118.057 262.56 115.83C265.428 115.159 268.162 115.079 269.995 115.622C271.589 116.095 276.025 116.107 279.848 115.646C283.674 115.19 287.314 115.097 287.944 115.436C289.097 116.064 291.926 116.061 296.581 115.427C298.413 115.173 298.911 115.384 298.359 116.171ZM215.996 88.764C214.407 90.4218 210.191 91.4451 209.26 90.3968C208.927 90.0237 205.882 90.1636 202.493 90.7105C199.103 91.2523 196.127 91.5534 195.877 91.3762C195.366 91.0186 199.619 88.9203 200.981 88.8587C201.462 88.8352 205.357 88.4708 209.64 88.0488C216.574 87.3697 217.261 87.4457 215.996 88.764ZM154.139 99.9003C150.718 100.479 147.86 100.608 147.784 100.176C147.709 99.7496 148.533 99.2418 149.616 99.0509C150.699 98.86 151.896 98.2572 152.275 97.7187C153.289 96.2716 167.662 92.7192 167.864 93.8667C168.147 95.4716 160.562 98.8049 154.139 99.9003ZM144.623 97.2722C143.682 98.1284 143.722 98.5823 144.851 99.8462C146.546 101.74 145.634 102.205 135.533 104.567C131.681 105.465 128.506 106.048 128.473 105.86C128.369 105.268 133.406 102.144 137.452 100.29C139.596 99.3044 141.497 98.1299 141.676 97.6825C141.857 97.2269 142.849 96.7163 143.884 96.5418C145.403 96.2846 145.543 96.4278 144.623 97.2722ZM209.199 68.2587C210.316 68.0829 210.308 68.2629 209.154 69.2311C208.382 69.8843 207.56 70.2824 207.322 70.1164C206.611 69.6157 207.75 68.4901 209.199 68.2587ZM212.915 66.6944C213.718 66.5526 213.952 65.6988 213.584 64.234C213.126 62.4068 213.476 61.7749 215.465 60.814C218.659 59.2834 220.433 59.6555 220.255 61.8347C220.152 63.0813 220.618 63.5506 221.925 63.512C222.925 63.485 223.96 63.87 224.226 64.3667C224.866 65.5597 222.02 66.829 216.481 67.8189C214.007 68.2658 211.919 68.2422 211.836 67.7693C211.753 67.2989 212.235 66.8142 212.915 66.6944ZM239.456 66.6538C241.339 66.3298 242.043 66.3896 241.014 66.7815C239.985 67.1734 238.441 67.4377 237.584 67.3677C236.727 67.2976 237.571 66.9782 239.456 66.6538ZM250.124 65.8121L256.062 65.6792L251.718 67.2473C248.51 68.4017 246.984 68.5856 245.885 67.9612C243.178 66.4188 244.116 65.9388 250.124 65.8121ZM260.901 64.4871C263.239 64.035 266.088 62.7571 267.678 61.4508C270.732 58.9565 273.315 58.1919 274.441 59.4562C274.89 59.9607 276.299 59.8668 277.986 59.2335C280.822 58.1658 281.68 58.7208 280.279 60.7238C279.728 61.5112 279.82 61.94 280.608 62.2541C281.268 62.5214 281.765 61.9434 281.858 60.8078C281.982 59.3017 282.678 58.8059 285.337 58.337C289.054 57.6817 289.848 58.7115 287.207 60.7654C286.245 61.5078 285.292 62.51 285.085 62.9835C284.88 63.4673 283.202 64.1069 281.361 64.4103C279.52 64.7136 274.443 65.5715 270.084 66.3135C265.721 67.0534 262.092 67.3256 262.019 66.9121C261.946 66.4986 260.758 65.9566 259.382 65.7115C257.067 65.3018 257.183 65.2067 260.901 64.4871ZM290.825 57.9665C292.863 56.741 298.063 55.9601 298.221 56.8568C298.295 57.2755 297.062 58.002 295.48 58.4781L295.485 58.4771C293.908 58.9497 291.896 59.2193 291.02 59.0726C289.498 58.8267 289.488 58.7724 290.825 57.9665ZM302.506 62.3396C305.414 60.8782 306.478 60.7491 310.026 61.4346C316.047 62.59 316.134 63.5048 310.324 64.5292C307.522 65.0232 303.858 65.1123 302.177 64.7346L299.118 64.0402L302.506 62.3396ZM514.599 111.717C513.882 111.598 512.295 110.743 511.07 109.81C509.847 108.885 508.307 108.195 507.65 108.279C506.992 108.368 504.556 107.82 502.237 107.064C499.916 106.306 496.873 105.433 495.476 105.122C494.073 104.813 492.952 104.078 492.979 103.49C493.006 102.904 491.338 101.391 489.269 100.133C484.899 97.4768 485.203 95.4781 489.729 97.1049C491.914 97.8921 493.016 97.8709 493.947 97.0274C495.841 95.3183 494.681 94.4784 490.879 94.8023C489.005 94.9648 486.837 94.7289 486.061 94.2849C484.018 93.1154 482.54 93.163 474.453 94.6156C470.463 95.3351 466.749 95.6914 466.203 95.404C465.654 95.1171 462.693 95.2769 459.62 95.76C456.427 96.2564 452.512 96.2513 450.485 95.7427C447.248 94.9304 447.049 94.7256 448.254 93.4739C450.431 91.2061 448.5 91.0296 443.798 93.0765C437.29 95.9001 430.584 95.3025 429.81 91.8177C429.735 91.4711 433.604 90.5917 438.41 89.8615C444.38 88.9581 447.2 88.2051 447.309 87.493C447.397 86.9205 446.977 86.5949 446.377 86.7567C442.819 87.7517 432.957 87.6014 431.85 86.5388C430.773 85.5057 430.427 85.54 429.377 86.7777C427.93 88.4851 414.522 91.4676 411.572 90.7407C409.976 90.3505 410.136 90.2291 412.476 90.0695C414.035 89.9625 415.255 89.5503 415.187 89.1652C415.119 88.7775 416.637 87.3533 418.557 85.9995C422.792 83.0143 424.24 80.9017 422.306 80.5286C421.58 80.3874 420 80.8578 418.8 81.5784C415.815 83.3546 410.134 84.2631 409.486 83.0663C409.138 82.4241 406.84 82.4482 402.807 83.1406C399.424 83.7186 396.61 83.9456 396.557 83.6458C396.411 82.8641 391.632 82.918 381.556 83.8073C376.736 84.2309 372.179 84.2271 371.432 83.8018C370.685 83.3713 367.893 83.1813 365.235 83.3702C362.577 83.5617 360.536 83.3807 360.703 82.9649C361.269 81.5354 358.764 81.3268 351.911 82.2208C348.132 82.7166 344.696 82.984 344.277 82.8127C343.854 82.6476 338.139 83.2129 331.568 84.0758C316.673 86.0306 312.649 86.1085 312.359 84.4597C312.195 83.5293 313.2 83.003 316.182 82.4612C321.435 81.5002 323.528 79.0554 318.538 79.7007C306.357 81.281 305.123 81.5705 305.783 82.664C306.273 83.4835 305.621 83.8783 303.238 84.2213C300.049 84.6796 293.859 84.5159 295.554 84.0172C296.043 83.875 297.09 83.0537 297.882 82.1971C299.184 80.787 298.543 80.7801 291.195 82.1158C286.724 82.9335 282.458 83.5417 281.718 83.4697C275.81 82.9099 273.589 83.2164 272.837 84.6998C272.159 86.0346 270.984 86.3244 264.206 86.8134C259.889 87.1322 253.976 87.4021 251.064 87.4225C248.154 87.4373 241.712 88.0936 236.75 88.8754C227.901 90.273 224.136 90.0016 220.91 87.743C218.99 86.4003 220.227 85.7557 226.416 84.8749C232.167 84.0607 236.789 81.7829 237.221 79.5483C237.569 77.7601 233.685 78.5222 232.286 80.5196C231.432 81.7469 230.01 82.1468 225.29 82.5048C222.034 82.751 217.448 83.3386 215.107 83.8153C211.383 84.5651 211.005 84.4932 212.138 83.2702C212.851 82.4916 213.399 81.6568 213.356 81.4087C213.312 81.1632 210.046 81.7392 206.093 82.6892C199.296 84.3248 198.804 84.3289 196.824 82.6796C194.942 81.1194 194.646 81.1024 193.898 82.4973C193.249 83.7175 191.669 84.26 186.613 84.9969C177.228 86.356 173.334 86.1553 173.483 84.309C173.581 83.1005 173.005 82.9303 170.528 83.4337C168.837 83.7745 167.108 84.3486 166.689 84.7101C166.268 85.0722 164.755 85.8479 163.325 86.4278C160.45 87.5929 158.425 86.5057 161.147 85.2557C163.441 84.2009 162.227 83.0534 158.729 82.9719C156.996 82.9338 156.147 82.5479 156.554 81.9858C156.926 81.4645 158.838 81.0794 160.928 81.0999C163.274 81.1206 164.913 80.7411 165.383 80.0693C165.907 79.324 167.01 79.1536 169.086 79.5068C172.464 80.0757 187.2 77.7012 195.92 75.1805C201.655 73.5242 205.437 73.5263 207.183 75.193C207.693 75.6813 208.186 75.4532 208.562 74.5661C209.072 73.3463 210.648 73.0951 221.105 72.5224C233.238 71.8645 235.082 72.0297 233.298 73.6208C232.575 74.2678 232.877 74.5584 234.394 74.6852C235.543 74.7784 236.547 74.4575 236.626 73.9666C236.701 73.4736 237.145 73.2274 237.616 73.4163C239.487 74.1577 256.798 71.3983 257.826 70.1858C258.635 69.2303 258.903 69.2658 259.096 70.3642C259.231 71.1291 259.675 71.6958 260.086 71.6233C260.494 71.5513 264.328 71.4856 268.601 71.4808C272.876 71.4705 279.334 70.8727 282.954 70.1545C286.575 69.4414 289.905 68.9956 290.353 69.1644C290.804 69.3353 298.048 69.1612 306.457 68.7764C318.016 68.2438 322.285 67.7468 323.982 66.7442C325.636 65.7596 326.271 65.6743 326.4 66.4057C326.825 68.769 346.37 67.9022 348.092 65.4427C348.816 64.4091 346.783 63.4005 344.705 63.7669C343.473 63.9842 341.215 64.0119 339.693 63.8299C330.692 62.7443 328.311 62.7166 322.855 63.6626C317.417 64.6054 316.768 64.5386 316.257 62.982C315.369 60.2739 319.036 58.1483 322.717 59.2394C325.298 60.0047 325.755 59.9189 327.435 58.3409C328.596 57.2488 330.235 56.6134 331.813 56.6495C333.197 56.6827 334.486 56.3168 334.679 55.8378C335.18 54.5849 332.361 53.9042 327.311 54.0565C324.894 54.1309 322.561 54.0493 322.127 53.8808C320.497 53.2355 313.31 54.5054 311.478 55.7665C309.906 56.8456 309.375 56.8406 308.491 55.7574C307.731 54.8309 306.821 54.7035 305.411 55.3333C304.189 55.8819 303.343 55.8605 303.24 55.279C303.149 54.7595 301.801 54.5547 300.246 54.8291C298.692 55.1029 296.98 55.0185 296.442 54.6443C295.904 54.2675 290.812 54.5686 285.123 55.3105C279.437 56.0572 272.402 56.6928 269.495 56.7231C262.045 56.8029 257.486 57.7426 255.809 59.5467C253.631 61.8866 249.669 62.3561 248.76 60.374C248.013 58.7548 246.013 58.4574 245.444 59.8848C245.282 60.2944 244.049 60.7702 242.708 60.9455C241.366 61.1207 238.814 61.4588 237.036 61.6951C234.871 61.9889 233.729 61.7265 233.585 60.9098C233.414 59.9381 232.356 59.9541 228.519 60.985L223.673 62.2873L225.43 60.2667C227.25 58.1658 226.593 56.0298 224.517 57.2806C223.866 57.6724 222.664 57.61 221.849 57.1434C221.035 56.6847 220.186 56.552 219.971 56.8616C219.754 57.1717 218.298 57.1328 216.736 56.782C214.823 56.3491 213.093 56.5262 211.434 57.3357C209.772 58.1512 208.719 58.2568 208.197 57.6719C207.669 57.0802 206.431 57.2187 204.258 58.1214C202.518 58.844 196.567 60.261 191.038 61.2651C181.13 63.0735 180.978 63.0711 180.639 61.1483C180.238 58.874 178.072 58.8961 177.274 61.182C176.584 63.1637 174.376 62.3564 174.553 60.1855C174.706 58.3012 173.51 58.1256 165.218 58.8204C158.272 59.4003 138.795 62.7387 133.071 64.3262C130.758 64.9739 125.442 66.3803 121.262 67.4584C116.716 68.6276 113.183 70.0021 112.48 70.8694C111.699 71.8333 108.36 72.979 102.522 74.2828C97.6937 75.358 93.4297 76.6855 93.0402 77.2418C92.6575 77.7916 90.8766 78.4973 89.0882 78.8127C86.7648 79.2224 85.8975 79.759 86.0592 80.6765C86.2871 81.9687 85.4696 82.4406 82.6546 82.6465C81.8152 82.7066 81.2136 83.239 81.3179 83.8308C81.4264 84.4459 80.898 84.3206 80.0829 83.537C78.7233 82.2338 78.3498 82.2917 71.7013 84.831C67.8713 86.2924 64.1512 87.516 63.4306 87.5551C61.5849 87.6514 56.3495 89.787 50.7309 92.7416C48.1013 94.1193 44.933 95.4347 43.6925 95.6535C42.452 95.8722 41.0548 96.5929 40.5912 97.2582C40.1224 97.9245 39.6875 98.1477 39.6191 97.7601C39.5512 97.375 38.9378 97.7043 38.2527 98.4886C37.4088 99.4609 37.1568 99.5426 37.4646 98.7342C37.7835 97.9132 37.2552 97.6679 35.7278 97.9372C34.4176 98.1683 33.6215 98.8069 33.7477 99.5228C34.0872 101.448 29.8068 103.423 27.6249 102.353C24.8062 100.966 23.5186 101.598 23.9689 104.152L24.3749 106.454L22.2975 104.889C19.5813 102.844 17.9922 103.202 16.7277 106.156C16.1586 107.477 14.8189 108.947 13.7495 109.426C11.5266 110.42 11.514 112.072 13.715 113.613C14.5459 114.199 15.3264 115.255 15.4508 115.961C15.5756 116.669 16.524 117.363 17.553 117.501C18.5876 117.641 19.2899 117.951 19.1184 118.203C18.7114 118.781 13.9687 117.56 13.8424 116.844C13.7472 116.304 8.3634 117.568 6.4203 118.592C5.25894 119.2 5.44864 121.484 6.70061 121.981C7.1653 122.168 7.9973 123.335 8.55519 124.579C9.107 125.82 10.6634 127.861 12.013 129.107C13.3626 130.354 14.7606 132.252 15.118 133.327C15.7494 135.23 16.9544 135.959 20.153 136.357C21.3638 136.513 21.8968 137.496 22.4436 140.597C23.3459 145.714 27.4187 155 29.4914 156.659C30.3604 157.356 32.1954 157.728 33.5651 157.487C36.501 156.969 39.6108 157.83 39.8564 159.223C39.9516 159.763 39.3797 161.205 38.5812 162.419L37.1313 164.639L39.7456 167.783C41.1891 169.517 42.945 170.846 43.6568 170.742C45.8868 170.407 48.6092 172.291 48.2908 173.946C47.8928 175.996 49.894 177.567 52.3466 177.134C53.4398 176.942 54.6209 177.112 54.9789 177.51C55.68 178.297 60.3997 177.06 64.2856 175.069C65.6252 174.385 68.8947 173.236 71.5559 172.506C76.4592 171.161 79.2223 169.24 82.2885 165.049C83.2248 163.77 84.4171 162.643 84.9392 162.551C85.4659 162.456 86.9412 161.559 88.2223 160.557C89.6502 159.437 93.3422 158.114 97.7743 157.136C101.75 156.256 107.819 154.634 111.268 153.536C114.717 152.437 123.939 149.791 131.76 147.655C145.054 144.026 146.099 143.85 147.846 144.944C149.545 146.014 150.804 145.837 162.049 142.951C168.832 141.206 174.766 139.36 175.23 138.847C176.72 137.198 180.044 136.119 181.347 136.862C182.079 137.277 183.931 137.113 185.739 136.471C187.46 135.862 191.455 134.534 194.614 133.529C197.769 132.519 200.517 131.462 200.717 131.176C200.917 130.891 201.996 131.476 203.113 132.478C205.384 134.508 209.131 134.311 211.81 132.021C213.106 130.908 213.548 130.83 214.012 131.633C214.327 132.182 215.134 132.538 215.8 132.421C216.467 132.303 216.832 131.74 216.609 131.175C216.309 130.396 218.153 129.837 223.94 128.925C231.47 127.742 233.884 127.558 244.851 127.311C259.565 126.987 262.985 126.646 264.936 125.305C266.496 124.225 267.099 124.169 267.853 125.014C268.648 125.908 269.115 125.836 270.701 124.587C271.776 123.747 273.457 123.214 274.579 123.367C276.399 123.606 276.453 123.735 275.287 124.951C274.189 126.096 274.736 126.298 279.236 126.397C282.104 126.464 290.172 126.291 297.167 126.02C304.164 125.745 312.455 125.464 315.602 125.399C318.747 125.327 327.013 124.89 333.975 124.419C340.935 123.946 347.231 123.657 347.961 123.776C348.695 123.889 352.265 123.854 355.894 123.685C359.525 123.525 365.453 123.266 369.07 123.116C372.684 122.969 378.793 122.662 382.635 122.432C389.196 122.04 395.036 121.916 405.514 121.958C407.944 121.972 412.856 121.662 416.429 121.267C425.436 120.286 421.267 119.7 406.924 119.934C400.628 120.035 389.724 120.167 382.689 120.227C371.553 120.317 344.38 121.226 342.419 121.571C342.036 121.639 341.121 120.814 340.383 119.74C339.236 118.072 339.263 117.608 340.577 116.583C341.421 115.914 343.256 115.09 344.649 114.74C346.311 114.327 346.975 113.757 346.575 113.087C345.787 111.776 355.034 110.676 358.187 111.706C359.623 112.177 364.912 111.612 374.154 110.001C381.752 108.672 388.732 107.831 389.665 108.122C390.598 108.413 393.194 108.491 395.434 108.288C400.732 107.822 409.214 107.819 418.119 108.285C422.043 108.493 427.083 108.511 429.321 108.327C431.556 108.143 433.793 108.154 434.296 108.361C434.8 108.557 439.114 108.633 443.885 108.519C453.923 108.29 459.104 108.402 464.152 108.948C468.16 109.387 474.102 109.584 478.878 109.437C480.604 109.384 482.931 109.935 484.047 110.655C485.327 111.493 487.308 111.756 489.407 111.375C494.457 110.469 498.578 110.489 502.604 111.423C508.415 112.78 514.959 113.396 515.449 112.638C515.697 112.25 515.316 111.841 514.599 111.717Z" fill="#CEFF1B"/>
</g>
</svg>
