<svg width="72" height="72" viewBox="0 0 72 72" fill="none" xmlns="http://www.w3.org/2000/svg">
<g clip-path="url(#clip0_110_248)">
<path d="M59.8991 48.4285V56.1392C59.8991 57.8639 59.2139 59.518 57.9944 60.7376C56.7748 61.9572 55.1207 62.6423 53.3959 62.6423H19.6605C17.9373 62.6405 16.2852 61.9548 15.0672 60.7358C13.8492 59.5168 13.1648 57.8641 13.1643 56.1409V7.54117C13.1643 5.81673 13.8492 4.16289 15.0684 2.94336C16.2876 1.72384 17.9413 1.03848 19.6657 1.03802H53.4011C55.1259 1.03802 56.78 1.72318 57.9995 2.94275C59.2191 4.16233 59.9043 5.81643 59.9043 7.54117V21.2793" fill="white"/>
<path d="M13.0381 55.9367V52.1047C13.0381 53.8295 13.7232 55.4836 14.9428 56.7032C16.1624 57.9227 17.8165 58.6079 19.5412 58.6079H53.2766C55.0014 58.6079 56.6555 57.9227 57.8751 56.7032C59.0946 55.4836 59.7798 53.8295 59.7798 52.1047V55.9367C59.7798 57.6615 59.0946 59.3156 57.8751 60.5352C56.6555 61.7547 55.0014 62.4399 53.2766 62.4399H19.5412C17.8165 62.4399 16.1624 61.7547 14.9428 60.5352C13.7232 59.3156 13.0381 57.6615 13.0381 55.9367Z" fill="#E7E7E7"/>
<path d="M36.4055 71.135C41.3261 71.135 45.3151 67.146 45.3151 62.2254C45.3151 57.3048 41.3261 53.3158 36.4055 53.3158C31.4848 53.3158 27.4958 57.3048 27.4958 62.2254C27.4958 67.146 31.4848 71.135 36.4055 71.135Z" fill="#F51A51"/>
<path d="M44.9015 61.7064C44.9015 64.0693 43.9628 66.3355 42.2919 68.0064C40.6211 69.6773 38.3549 70.616 35.9919 70.616C33.6289 70.616 31.3627 69.6773 29.6918 68.0064C28.021 66.3355 27.0823 64.0693 27.0823 61.7064C27.0825 61.3305 27.1057 60.9549 27.1515 60.5818C27.4246 62.7337 28.4732 64.712 30.1007 66.146C31.7282 67.5799 33.8228 68.3711 35.9919 68.3711C38.161 68.3711 40.2556 67.5799 41.8831 66.146C43.5106 64.712 44.5592 62.7337 44.8323 60.5818C44.8781 60.9549 44.9012 61.3305 44.9015 61.7064Z" fill="#F56C8E"/>
<path d="M53.2714 63.6803H47.7474V61.6043H53.2714C54.7204 61.6029 56.1097 61.0267 57.1343 60.0021C58.1589 58.9775 58.7351 57.5882 58.7365 56.1392V7.54116C58.7351 6.09214 58.1589 4.70286 57.1343 3.67824C56.1097 2.65363 54.7204 2.0774 53.2714 2.07602H19.536C18.0878 2.07877 16.6999 2.65561 15.6764 3.68007C14.6529 4.70454 14.0774 6.09303 14.076 7.54116V56.1409C14.0774 57.5899 14.6536 58.9792 15.6782 60.0038C16.7029 61.0284 18.0921 61.6047 19.5412 61.606H25.4232V63.682H19.5412C17.5418 63.6798 15.625 62.8845 14.2113 61.4708C12.7975 60.057 12.0023 58.1402 12 56.1409V7.54116C12.0023 5.54182 12.7975 3.62503 14.2113 2.21128C15.625 0.797537 17.5418 0.00228941 19.5412 0L53.2766 0C55.2759 0.00228941 57.1927 0.797537 58.6064 2.21128C60.0202 3.62503 60.8154 5.54182 60.8177 7.54116V56.1409C60.815 58.1408 60.0188 60.058 58.604 61.4715C57.1892 62.885 55.2713 63.6794 53.2714 63.6803Z" fill="#54BAE0"/>
<path d="M44.3635 28.1007H28.4473V30.1767H44.3635V28.1007Z" fill="#54BAE0"/>
<path d="M39.4015 57.532L31.8406 65.0929L33.3085 66.5609L40.8694 59L39.4015 57.532Z" fill="white"/>
<path d="M44.3635 33.1108H28.4473V35.1869H44.3635V33.1108Z" fill="#54BAE0"/>
<path d="M41.2169 65.4233L33.4478 57.6541L31.9798 59.1221L39.7489 66.8912L41.2169 65.4233Z" fill="white"/>
<path d="M44.3635 38.1227H28.4473V40.1988H44.3635V38.1227Z" fill="#54BAE0"/>
<path d="M36.4054 72C34.4379 72 32.5147 71.4166 30.8788 70.3235C29.2429 69.2304 27.9679 67.6768 27.215 65.8591C26.4621 64.0415 26.2651 62.0413 26.6489 60.1117C27.0327 58.182 27.9802 56.4095 29.3714 55.0183C30.7626 53.6271 32.5351 52.6797 34.4647 52.2959C36.3944 51.9121 38.3945 52.109 40.2122 52.862C42.0299 53.6149 43.5835 54.8899 44.6765 56.5258C45.7696 58.1616 46.353 60.0849 46.353 62.0524C46.3503 64.6898 45.3013 67.2184 43.4364 69.0834C41.5714 70.9483 39.0428 71.9972 36.4054 72ZM36.4054 54.1808C34.8485 54.1808 33.3266 54.6424 32.0322 55.5074C30.7377 56.3723 29.7288 57.6017 29.133 59.04C28.5372 60.4784 28.3813 62.0611 28.685 63.588C28.9888 65.115 29.7385 66.5176 30.8393 67.6184C31.9402 68.7193 33.3428 69.469 34.8697 69.7727C36.3967 70.0764 37.9794 69.9205 39.4177 69.3248C40.8561 68.729 42.0854 67.7201 42.9504 66.4256C43.8153 65.1311 44.277 63.6092 44.277 62.0524C44.2747 59.9654 43.4446 57.9645 41.9689 56.4888C40.4932 55.0131 38.4924 54.1831 36.4054 54.1808Z" fill="#54BAE0"/>
<path d="M30.8883 60.5819C30.8883 60.5975 30.8745 60.6338 30.9074 60.4746C30.9402 60.3155 30.9852 60.1096 31.0354 59.9297C31.1794 59.4094 31.3948 58.9116 31.6755 58.4505C32.6754 56.8208 34.3985 56.2015 36.2514 56.2568C36.9192 56.2759 36.9192 55.2379 36.2514 55.2188C34.1304 55.1583 32.153 55.9108 30.9298 57.6945C30.3431 58.5561 29.9728 59.5466 29.8503 60.5819C29.7777 61.2445 30.8174 61.2393 30.8883 60.5819Z" fill="#F9F9F9"/>
<g opacity="0.5">
<path d="M18.0049 6.21941H24.0219C24.6897 6.21941 24.6914 5.1814 24.0219 5.1814H18.0049C17.3371 5.1814 17.3354 6.21941 18.0049 6.21941Z" fill="#7490A8"/>
<path d="M26.5115 6.21941H41.4485C42.1163 6.21941 42.118 5.1814 41.4485 5.1814H26.5115C25.8437 5.1814 25.842 6.21941 26.5115 6.21941Z" fill="#7490A8"/>
</g>
<path d="M51.6963 18.3262H51.0869V21.0859C51.0869 21.4492 51.0068 21.7168 50.8467 21.8887C50.6865 22.0605 50.4775 22.1465 50.2197 22.1465C49.9424 22.1465 49.7275 22.0566 49.5752 21.877C49.4229 21.6973 49.3467 21.4336 49.3467 21.0859V14.4766C49.3467 14.1016 49.4307 13.8301 49.5986 13.6621C49.7666 13.4941 50.0381 13.4102 50.4131 13.4102H53.2432C53.6338 13.4102 53.9678 13.4277 54.2451 13.4629C54.5225 13.4941 54.7725 13.5605 54.9951 13.6621C55.2646 13.7754 55.5029 13.9375 55.71 14.1484C55.917 14.3594 56.0732 14.6055 56.1787 14.8867C56.2881 15.1641 56.3428 15.459 56.3428 15.7715C56.3428 16.4121 56.1611 16.9238 55.7979 17.3066C55.4385 17.6895 54.8916 17.9609 54.1572 18.1211C54.4658 18.2852 54.7607 18.5273 55.042 18.8477C55.3232 19.168 55.5732 19.5098 55.792 19.873C56.0146 20.2324 56.1865 20.5586 56.3076 20.8516C56.4326 21.1406 56.4951 21.3398 56.4951 21.4492C56.4951 21.5625 56.458 21.6758 56.3838 21.7891C56.3135 21.8984 56.2158 21.9844 56.0908 22.0469C55.9658 22.1133 55.8213 22.1465 55.6572 22.1465C55.4619 22.1465 55.2979 22.0996 55.165 22.0059C55.0322 21.916 54.917 21.8008 54.8193 21.6602C54.7256 21.5195 54.5967 21.3125 54.4326 21.0391L53.7354 19.8789C53.4854 19.4531 53.2607 19.1289 53.0615 18.9062C52.8662 18.6836 52.667 18.5312 52.4639 18.4492C52.2607 18.3672 52.0049 18.3262 51.6963 18.3262ZM52.6924 14.7168H51.0869V17.0781H52.6455C53.0635 17.0781 53.415 17.043 53.7002 16.9727C53.9854 16.8984 54.2021 16.7754 54.3506 16.6035C54.5029 16.4277 54.5791 16.1875 54.5791 15.8828C54.5791 15.6445 54.5186 15.4355 54.3975 15.2559C54.2764 15.0723 54.1084 14.9355 53.8936 14.8457C53.6904 14.7598 53.29 14.7168 52.6924 14.7168Z" fill="#54BAE0"/>
<path d="M47.0146 14.752H43.0947V16.8613H46.7041C46.9697 16.8613 47.167 16.9219 47.2959 17.043C47.4287 17.1602 47.4951 17.3164 47.4951 17.5117C47.4951 17.707 47.4307 17.8672 47.3018 17.9922C47.1729 18.1133 46.9736 18.1738 46.7041 18.1738H43.0947V20.6172H47.1494C47.4229 20.6172 47.6279 20.6816 47.7646 20.8105C47.9053 20.9355 47.9756 21.1035 47.9756 21.3145C47.9756 21.5176 47.9053 21.6836 47.7646 21.8125C47.6279 21.9375 47.4229 22 47.1494 22H42.4209C42.042 22 41.7686 21.916 41.6006 21.748C41.4365 21.5801 41.3545 21.3086 41.3545 20.9336V14.4766C41.3545 14.2266 41.3916 14.0234 41.4658 13.8672C41.54 13.707 41.6553 13.5918 41.8115 13.5215C41.9717 13.4473 42.1748 13.4102 42.4209 13.4102H47.0146C47.292 13.4102 47.4971 13.4727 47.6299 13.5977C47.7666 13.7188 47.835 13.8789 47.835 14.0781C47.835 14.2812 47.7666 14.4453 47.6299 14.5703C47.4971 14.6914 47.292 14.752 47.0146 14.752Z" fill="#54BAE0"/>
<path d="M39.2334 14.752H35.8057V16.9492H38.6709C38.9365 16.9492 39.1338 17.0098 39.2627 17.1309C39.3955 17.248 39.4619 17.4062 39.4619 17.6055C39.4619 17.8047 39.3955 17.9629 39.2627 18.0801C39.1299 18.1973 38.9326 18.2559 38.6709 18.2559H35.8057V21.0859C35.8057 21.4453 35.7236 21.7129 35.5596 21.8887C35.3994 22.0605 35.1924 22.1465 34.9385 22.1465C34.6807 22.1465 34.4697 22.0586 34.3057 21.8828C34.1455 21.707 34.0654 21.4414 34.0654 21.0859V14.4766C34.0654 14.2266 34.1025 14.0234 34.1768 13.8672C34.251 13.707 34.3662 13.5918 34.5225 13.5215C34.6826 13.4473 34.8857 13.4102 35.1318 13.4102H39.2334C39.5107 13.4102 39.7158 13.4727 39.8486 13.5977C39.9854 13.7188 40.0537 13.8789 40.0537 14.0781C40.0537 14.2812 39.9854 14.4453 39.8486 14.5703C39.7158 14.6914 39.5107 14.752 39.2334 14.752Z" fill="#54BAE0"/>
<path d="M31.9795 14.752H28.5518V16.9492H31.417C31.6826 16.9492 31.8799 17.0098 32.0088 17.1309C32.1416 17.248 32.208 17.4062 32.208 17.6055C32.208 17.8047 32.1416 17.9629 32.0088 18.0801C31.876 18.1973 31.6787 18.2559 31.417 18.2559H28.5518V21.0859C28.5518 21.4453 28.4697 21.7129 28.3057 21.8887C28.1455 22.0605 27.9385 22.1465 27.6846 22.1465C27.4268 22.1465 27.2158 22.0586 27.0518 21.8828C26.8916 21.707 26.8115 21.4414 26.8115 21.0859V14.4766C26.8115 14.2266 26.8486 14.0234 26.9229 13.8672C26.9971 13.707 27.1123 13.5918 27.2686 13.5215C27.4287 13.4473 27.6318 13.4102 27.8779 13.4102H31.9795C32.2568 13.4102 32.4619 13.4727 32.5947 13.5977C32.7314 13.7188 32.7998 13.8789 32.7998 14.0781C32.7998 14.2812 32.7314 14.4453 32.5947 14.5703C32.4619 14.6914 32.2568 14.752 31.9795 14.752Z" fill="#54BAE0"/>
<path d="M21.1221 13.2637C22.0127 13.2637 22.7764 13.4453 23.4131 13.8086C24.0537 14.168 24.5381 14.6816 24.8662 15.3496C25.1943 16.0137 25.3584 16.7949 25.3584 17.6934C25.3584 18.3574 25.2686 18.9609 25.0889 19.5039C24.9092 20.0469 24.6396 20.5176 24.2803 20.916C23.9209 21.3145 23.4795 21.6191 22.9561 21.8301C22.4326 22.041 21.833 22.1465 21.1572 22.1465C20.4854 22.1465 19.8838 22.0391 19.3525 21.8242C18.8213 21.6055 18.3779 21.2988 18.0225 20.9043C17.667 20.5098 17.3975 20.0352 17.2139 19.4805C17.0342 18.9258 16.9443 18.3262 16.9443 17.6816C16.9443 17.0215 17.0381 16.416 17.2256 15.8652C17.417 15.3145 17.6924 14.8457 18.0518 14.459C18.4111 14.0723 18.8486 13.7773 19.3643 13.5742C19.8799 13.3672 20.4658 13.2637 21.1221 13.2637ZM23.5947 17.6816C23.5947 17.0527 23.4932 16.5078 23.29 16.0469C23.0869 15.5859 22.7959 15.2383 22.417 15.0039C22.042 14.7656 21.6104 14.6465 21.1221 14.6465C20.7744 14.6465 20.4521 14.7129 20.1553 14.8457C19.8623 14.9746 19.6084 15.1641 19.3936 15.4141C19.1826 15.6641 19.0146 15.9844 18.8896 16.375C18.7686 16.7617 18.708 17.1973 18.708 17.6816C18.708 18.1699 18.7686 18.6113 18.8896 19.0059C19.0146 19.4004 19.1885 19.7285 19.4111 19.9902C19.6377 20.248 19.8955 20.4414 20.1846 20.5703C20.4775 20.6992 20.7979 20.7637 21.1455 20.7637C21.5908 20.7637 21.999 20.6523 22.3701 20.4297C22.7451 20.207 23.042 19.8633 23.2607 19.3984C23.4834 18.9336 23.5947 18.3613 23.5947 17.6816Z" fill="#54BAE0"/>
</g>
<defs>
<clipPath id="clip0_110_248">
<rect width="72" height="72" fill="white"/>
</clipPath>
</defs>
</svg>
