<svg width="72" height="72" viewBox="0 0 72 72" fill="none" xmlns="http://www.w3.org/2000/svg">
<path d="M59.8991 52.4285V60.1392C59.8991 61.8639 59.2139 63.518 57.9944 64.7376C56.7748 65.9571 55.1207 66.6423 53.3959 66.6423H19.6605C17.9373 66.6405 16.2852 65.9547 15.0672 64.7357C13.8492 63.5167 13.1648 61.8641 13.1643 60.1409V11.5412C13.1643 9.81671 13.8492 8.16288 15.0684 6.94335C16.2876 5.72382 17.9413 5.03847 19.6657 5.03801H53.4011C55.1259 5.03801 56.78 5.72316 57.9995 6.94274C59.2191 8.16231 59.9043 9.81641 59.9043 11.5412V25.2792" fill="white"/>
<path d="M13.0381 59.9368V56.1048C13.0381 57.8295 13.7232 59.4836 14.9428 60.7032C16.1624 61.9228 17.8165 62.6079 19.5412 62.6079H53.2766C55.0014 62.6079 56.6555 61.9228 57.8751 60.7032C59.0946 59.4836 59.7798 57.8295 59.7798 56.1048V59.9368C59.7798 61.6615 59.0946 63.3156 57.8751 64.5352C56.6555 65.7548 55.0014 66.4399 53.2766 66.4399H19.5412C17.8165 66.4399 16.1624 65.7548 14.9428 64.5352C13.7232 63.3156 13.0381 61.6615 13.0381 59.9368Z" fill="#E7E7E7"/>
<path d="M53.2714 67.6803H47.7474V65.6043H53.2714C54.7204 65.6029 56.1097 65.0267 57.1343 64.0021C58.1589 62.9775 58.7351 61.5882 58.7365 60.1392V11.5412C58.7351 10.0921 58.1589 8.70286 57.1343 7.67824C56.1097 6.65363 54.7204 6.0774 53.2714 6.07602H19.536C18.0878 6.07877 16.6999 6.65561 15.6764 7.68007C14.6529 8.70454 14.0774 10.093 14.076 11.5412V60.1409C14.0774 61.5899 14.6536 62.9792 15.6782 64.0038C16.7029 65.0284 18.0921 65.6047 19.5412 65.606L47.7474 65.606V67.6821L19.5412 67.6821C17.5418 67.6798 15.625 66.8845 14.2113 65.4708C12.7975 64.057 12.0023 62.1402 12 60.1409V11.5412C12.0023 9.54182 12.7975 7.62503 14.2113 6.21128C15.625 4.79754 17.5418 4.00229 19.5412 4L53.2766 4C55.2759 4.00229 57.1927 4.79754 58.6064 6.21128C60.0202 7.62503 60.8154 9.54182 60.8177 11.5412V60.1409C60.815 62.1408 60.0188 64.058 58.604 65.4715C57.1892 66.885 55.2713 67.6794 53.2714 67.6803Z" fill="#54BAE0"/>
<path d="M44.3635 32.1007H28.4473V34.1767H44.3635V32.1007Z" fill="#54BAE0"/>
<path d="M44.3635 37.1109H28.4473V39.1869H44.3635V37.1109Z" fill="#54BAE0"/>
<path d="M44.3635 42.1227H28.4473V44.1988H44.3635V42.1227Z" fill="#54BAE0"/>
<g opacity="0.5">
<path d="M18.0049 10.2194H24.0219C24.6897 10.2194 24.6914 9.18141 24.0219 9.18141H18.0049C17.3371 9.18141 17.3354 10.2194 18.0049 10.2194Z" fill="#7490A8"/>
<path d="M26.5115 10.2194H41.4485C42.1163 10.2194 42.118 9.18141 41.4485 9.18141H26.5115C25.8437 9.18141 25.842 10.2194 26.5115 10.2194Z" fill="#7490A8"/>
</g>
<path d="M51.6963 22.3262H51.0869V25.0859C51.0869 25.4492 51.0068 25.7168 50.8467 25.8887C50.6865 26.0605 50.4775 26.1465 50.2197 26.1465C49.9424 26.1465 49.7275 26.0566 49.5752 25.877C49.4229 25.6973 49.3467 25.4336 49.3467 25.0859V18.4766C49.3467 18.1016 49.4307 17.8301 49.5986 17.6621C49.7666 17.4941 50.0381 17.4102 50.4131 17.4102H53.2432C53.6338 17.4102 53.9678 17.4277 54.2451 17.4629C54.5225 17.4941 54.7725 17.5605 54.9951 17.6621C55.2646 17.7754 55.5029 17.9375 55.71 18.1484C55.917 18.3594 56.0732 18.6055 56.1787 18.8867C56.2881 19.1641 56.3428 19.459 56.3428 19.7715C56.3428 20.4121 56.1611 20.9238 55.7979 21.3066C55.4385 21.6895 54.8916 21.9609 54.1572 22.1211C54.4658 22.2852 54.7607 22.5273 55.042 22.8477C55.3232 23.168 55.5732 23.5098 55.792 23.873C56.0146 24.2324 56.1865 24.5586 56.3076 24.8516C56.4326 25.1406 56.4951 25.3398 56.4951 25.4492C56.4951 25.5625 56.458 25.6758 56.3838 25.7891C56.3135 25.8984 56.2158 25.9844 56.0908 26.0469C55.9658 26.1133 55.8213 26.1465 55.6572 26.1465C55.4619 26.1465 55.2979 26.0996 55.165 26.0059C55.0322 25.916 54.917 25.8008 54.8193 25.6602C54.7256 25.5195 54.5967 25.3125 54.4326 25.0391L53.7354 23.8789C53.4854 23.4531 53.2607 23.1289 53.0615 22.9062C52.8662 22.6836 52.667 22.5312 52.4639 22.4492C52.2607 22.3672 52.0049 22.3262 51.6963 22.3262ZM52.6924 18.7168H51.0869V21.0781H52.6455C53.0635 21.0781 53.415 21.043 53.7002 20.9727C53.9854 20.8984 54.2021 20.7754 54.3506 20.6035C54.5029 20.4277 54.5791 20.1875 54.5791 19.8828C54.5791 19.6445 54.5186 19.4355 54.3975 19.2559C54.2764 19.0723 54.1084 18.9355 53.8936 18.8457C53.6904 18.7598 53.29 18.7168 52.6924 18.7168Z" fill="#54BAE0"/>
<path d="M47.0146 18.752H43.0947V20.8613H46.7041C46.9697 20.8613 47.167 20.9219 47.2959 21.043C47.4287 21.1602 47.4951 21.3164 47.4951 21.5117C47.4951 21.707 47.4307 21.8672 47.3018 21.9922C47.1729 22.1133 46.9736 22.1738 46.7041 22.1738H43.0947V24.6172H47.1494C47.4229 24.6172 47.6279 24.6816 47.7646 24.8105C47.9053 24.9355 47.9756 25.1035 47.9756 25.3145C47.9756 25.5176 47.9053 25.6836 47.7646 25.8125C47.6279 25.9375 47.4229 26 47.1494 26H42.4209C42.042 26 41.7686 25.916 41.6006 25.748C41.4365 25.5801 41.3545 25.3086 41.3545 24.9336V18.4766C41.3545 18.2266 41.3916 18.0234 41.4658 17.8672C41.54 17.707 41.6553 17.5918 41.8115 17.5215C41.9717 17.4473 42.1748 17.4102 42.4209 17.4102H47.0146C47.292 17.4102 47.4971 17.4727 47.6299 17.5977C47.7666 17.7188 47.835 17.8789 47.835 18.0781C47.835 18.2812 47.7666 18.4453 47.6299 18.5703C47.4971 18.6914 47.292 18.752 47.0146 18.752Z" fill="#54BAE0"/>
<path d="M39.2334 18.752H35.8057V20.9492H38.6709C38.9365 20.9492 39.1338 21.0098 39.2627 21.1309C39.3955 21.248 39.4619 21.4062 39.4619 21.6055C39.4619 21.8047 39.3955 21.9629 39.2627 22.0801C39.1299 22.1973 38.9326 22.2559 38.6709 22.2559H35.8057V25.0859C35.8057 25.4453 35.7236 25.7129 35.5596 25.8887C35.3994 26.0605 35.1924 26.1465 34.9385 26.1465C34.6807 26.1465 34.4697 26.0586 34.3057 25.8828C34.1455 25.707 34.0654 25.4414 34.0654 25.0859V18.4766C34.0654 18.2266 34.1025 18.0234 34.1768 17.8672C34.251 17.707 34.3662 17.5918 34.5225 17.5215C34.6826 17.4473 34.8857 17.4102 35.1318 17.4102H39.2334C39.5107 17.4102 39.7158 17.4727 39.8486 17.5977C39.9854 17.7188 40.0537 17.8789 40.0537 18.0781C40.0537 18.2812 39.9854 18.4453 39.8486 18.5703C39.7158 18.6914 39.5107 18.752 39.2334 18.752Z" fill="#54BAE0"/>
<path d="M31.9795 18.752H28.5518V20.9492H31.417C31.6826 20.9492 31.8799 21.0098 32.0088 21.1309C32.1416 21.248 32.208 21.4062 32.208 21.6055C32.208 21.8047 32.1416 21.9629 32.0088 22.0801C31.876 22.1973 31.6787 22.2559 31.417 22.2559H28.5518V25.0859C28.5518 25.4453 28.4697 25.7129 28.3057 25.8887C28.1455 26.0605 27.9385 26.1465 27.6846 26.1465C27.4268 26.1465 27.2158 26.0586 27.0518 25.8828C26.8916 25.707 26.8115 25.4414 26.8115 25.0859V18.4766C26.8115 18.2266 26.8486 18.0234 26.9229 17.8672C26.9971 17.707 27.1123 17.5918 27.2686 17.5215C27.4287 17.4473 27.6318 17.4102 27.8779 17.4102H31.9795C32.2568 17.4102 32.4619 17.4727 32.5947 17.5977C32.7314 17.7188 32.7998 17.8789 32.7998 18.0781C32.7998 18.2812 32.7314 18.4453 32.5947 18.5703C32.4619 18.6914 32.2568 18.752 31.9795 18.752Z" fill="#54BAE0"/>
<path d="M21.1221 17.2637C22.0127 17.2637 22.7764 17.4453 23.4131 17.8086C24.0537 18.168 24.5381 18.6816 24.8662 19.3496C25.1943 20.0137 25.3584 20.7949 25.3584 21.6934C25.3584 22.3574 25.2686 22.9609 25.0889 23.5039C24.9092 24.0469 24.6396 24.5176 24.2803 24.916C23.9209 25.3145 23.4795 25.6191 22.9561 25.8301C22.4326 26.041 21.833 26.1465 21.1572 26.1465C20.4854 26.1465 19.8838 26.0391 19.3525 25.8242C18.8213 25.6055 18.3779 25.2988 18.0225 24.9043C17.667 24.5098 17.3975 24.0352 17.2139 23.4805C17.0342 22.9258 16.9443 22.3262 16.9443 21.6816C16.9443 21.0215 17.0381 20.416 17.2256 19.8652C17.417 19.3145 17.6924 18.8457 18.0518 18.459C18.4111 18.0723 18.8486 17.7773 19.3643 17.5742C19.8799 17.3672 20.4658 17.2637 21.1221 17.2637ZM23.5947 21.6816C23.5947 21.0527 23.4932 20.5078 23.29 20.0469C23.0869 19.5859 22.7959 19.2383 22.417 19.0039C22.042 18.7656 21.6104 18.6465 21.1221 18.6465C20.7744 18.6465 20.4521 18.7129 20.1553 18.8457C19.8623 18.9746 19.6084 19.1641 19.3936 19.4141C19.1826 19.6641 19.0146 19.9844 18.8896 20.375C18.7686 20.7617 18.708 21.1973 18.708 21.6816C18.708 22.1699 18.7686 22.6113 18.8896 23.0059C19.0146 23.4004 19.1885 23.7285 19.4111 23.9902C19.6377 24.248 19.8955 24.4414 20.1846 24.5703C20.4775 24.6992 20.7979 24.7637 21.1455 24.7637C21.5908 24.7637 21.999 24.6523 22.3701 24.4297C22.7451 24.207 23.042 23.8633 23.2607 23.3984C23.4834 22.9336 23.5947 22.3613 23.5947 21.6816Z" fill="#54BAE0"/>
</svg>
